<svg id="vector" xmlns="http://www.w3.org/2000/svg" width="578.0d" height="295.0d" viewBox="0 0 578.0 295.0"><g id="g_0"><path fill="#308a67" d="M578.28 295.9H-0.04V0.1h578.32z"/><path fill="#b7ffe7" d="M318.97 0.08h259.31v147.37a275.56 275.56 0 0 1-17.25 0.54C455.53 148 364.05 87.9 318.97 0.1z" fill-opacity="0.3"/><path fill="#006b48" d="M339.4 0.08h238.88v129.33a257.51 257.51 0 0 1-17.25 0.58C465.83 130 382.87 77.6 339.4 0.1z" fill-opacity="0.3"/><path fill="#74ffe7" d="M254.06 295.9c22.32-39.46 35.06-85.06 35.06-133.64c0-60.78-19.95-116.9-53.64-162.18H-0.04V295.9h254.1z" fill-opacity="0.3"/><path fill="#006943" d="M233.14 295.9c24.07-38.81 37.97-84.6 37.97-133.64c0-61.66-21.98-118.19-58.53-162.18H-0.04V295.9h233.18z" fill-opacity="0.3"/><path fill="#97ffdd" d="M433.08 295.9c-10-23.47-15.53-49.3-15.53-76.43c0-96.05 69.37-175.9 160.73-192.2V295.9h-145.2z" fill-opacity="0.3"/><path fill="#00734d" d="M452.83 295.9c-11.07-23.14-17.28-49.06-17.28-76.43c0-86.08 61.37-157.82 142.73-173.88V295.9H452.83z" fill-opacity="0.3"/><path fill="#abffe3" d="M10.75 295.9c26.55-76.29 99.1-131.04 184.44-131.04S353.08 219.6 379.62 295.9H10.75z" fill-opacity="0.3"/><path fill="#00714c" d="M29.93 295.9c25.72-66.15 90.01-113.04 165.26-113.04s139.54 46.89 165.25 113.04H29.94z" fill-opacity="0.3"/></g></svg>