<svg id="vector" xmlns="http://www.w3.org/2000/svg" width="578.0d" height="295.0d" viewBox="0 0 578.0 295.0"><g id="g_0"><path fill="#761ad3" d="M0 0h578.33v295.82H0z"/><path fill="#a250f5" d="M-29.97 96.45c26.66 12.37 53.32 18.56 79.98 18.56c26.65 0 53.31-6.19 79.97-18.56c27.09 12.37 53.75 18.56 79.98 18.56c26.22 0 52.26-6.19 78.11-18.56c28.14 12.37 55.42 18.56 81.83 18.56c26.42 0 52.46-6.19 78.12-18.56c26.66 12.37 53.32 18.56 79.97 18.56c26.66 0 53.32-6.19 79.98-18.56V295H-29.97V96.45z" fill-rule="evenodd"/></g></svg>