<svg id="vector" xmlns="http://www.w3.org/2000/svg" width="578.0d" height="295.0d" viewBox="0 0 578.0 295.0"><g id="g_0"><path fill="#38af88" d="M0 0h578v295H0z"/><path fill="#69d5ba" d="M-145.78 145.76l20.31 18.63c20.31 18.63 60.94 55.9 101.57 68.36c40.63 12 81.25 0.35 121.88-37.27c40.63-36.91 81.26-76.81 121.88-64c40.63 12.8 81.26 76 121.88 57.72C382.37 170.2 423 69.76 463.63 32.14c40.62-36.92 81.25 12 121.88 49.61c40.63 36.92 81.25 62.54 121.88 68.36c40.63 5.82 81.25-5.82 101.57-12.46l20.31-6.17v163.34h-975.05V145.76z" fill-opacity="0.5"/><path fill="#e1fffa" d="M0 165.64h23.71c23.71 0 71.13 0 118.55 19.38c47.42 19.2 94.84 58.23 142.26 58.1c47.42 0.13 94.84-38.9 142.26-53.29c47.42-14.66 94.84-4.67 142.25 9.71c47.42 14.66 94.84 33.73 118.55 43.58l23.71 9.67v43.57H0V165.64z" fill-opacity="0.4"/></g></svg>