<svg id="vector" xmlns="http://www.w3.org/2000/svg" width="578.0d" height="295.0d" viewBox="0 0 578.0 295.0"><g id="g_0"><path fill="#d89700" d="M578.14 295.82H0V0h578.14z"/><path fill="#f9b822" d="M5.75 155.5c-34.98 12.67-79.5-59.1-118.26-79.91l24.02-90.18l708.8 23.3l14.27 158.95c-81.34 50.7-154.71 107.61-190.23 115.57c-35.51 7.96-65.54-108.2-98.63-78.84c-33.1 29.37-60.35 81.37-109.4-8.72c-41.28-75.83-95.85 52.9-133.25 44.16c-37.34-8.27-62.34-96.99-97.32-84.32z"/><path fill="#ffc43a" d="M-84.08 124.27c41.66-31.78 50.47 5.96 71.74 0c31.93-8.65 84.48-40.33 117.76-19.18c33.25 20.73 69.9 37.7 101.8 28.55c31.91-9.14 97.12-38.09 129.87-28.55c32.77 9.96 33.08 58.4 66.35 79.55c33.26 20.73 64.19-10.1 95.43-34.14c31.25-23.63 62.82-40.46 94.91-45.4c32.1-4.95 64.67 0.6 80.98 3.86l16.3 2.99L686 0l-16.13 0.73l-80.63 3.61l-96.77 4.34a25076521.82 25076521.82 0 0 0-387.06 17.36L8.65 30.38L-71.99 34l-16.13 0.72l4.04 89.55z"/><path fill="#fed13c" d="M586.51 87.1h-24.6c-24.6 0-73.8 0-123-17.22c-49.19-17.06-98.39-51.73-147.58-51.61c-49.2-0.12-98.4 34.55-147.6 47.34c-49.2 13.02-98.39 4.15-147.59-8.63c-49.2-13.03-98.4-29.96-122.99-38.71l-24.6-8.6V0h737.96v87.1z"/></g></svg>