<svg id="vector" xmlns="http://www.w3.org/2000/svg" width="578.0d" height="295.0d" viewBox="0 0 578.0 295.0"><g id="g_0"><path fill="#ad2b09" d="M578.33 0H0v295.82h578.33z"/><path fill="#fe6e48" d="M438.14 69.21c-1.25-48.85-162.63-74.2-243.17-80.77l217.19-209.87L747.53 162.8L588.71 395.9c-50.25 4.95-163.45 3.21-214.18-43.35c-63.42-58.19 65.18-222.28 63.61-283.34z" fill-opacity="0.5"/><path fill="#fe6e48" d="M551.53 35.68c25.3-35.87-72.4-146.32-124.42-197.06l262.17-26.95l25.48 468.12l-234.39 77.02c-37.3-25.15-114.43-91.08-124.48-153.57c-12.56-78.1 164.02-122.72 195.64-167.56zm-349.06 82.9C190.47-0.97 77.12-36.1 21.94-38.73L-99 180.35L35.05 351.6c60.82-27.87 179.43-113.5 167.43-233.03z" fill-opacity="0.5"/><path fill="#fe6e48" d="M163.23 99.82c-116.72-88.2-246.84-35.87-297.3 1.32l89.22 263.57l269.15 43.07c28.28-65.9 55.65-219.75-61.07-307.96z" fill-opacity="0.5"/></g></svg>