<svg id="vector" xmlns="http://www.w3.org/2000/svg" width="578.0d" height="295.0d" viewBox="0 0 578.0 295.0"><g id="g_0"><path fill="#761ad3" d="M0 0h578.33v295.82H0z"/><path fill="#761ad3" d="M179.93 122.43c-84.08-23.86-165.7 21.3-196 46.87l-18.47 167.6l711.58 7.1l-21.3-194.58c-44.04 21.3-156.52 64.76-254.24 68.17c-122.15 4.26-116.47-65.33-221.57-95.16z"/><path fill="#a250f5" d="M490.85 135.85c53.4 27.28 117.88 32.2 143.45 31.25l32.67 170.44l-755.61-22.73c33.61-37.87 129.82-106.8 245.72-79.54c144.87 34.1 267.01-133.5 333.77-99.42z" fill-opacity="0.5"/><path fill="#761ad3" d="M121.7 72.72C81.93 46.58 54.94-8.24 46.42-32.38h243.03c6.17-2.5 11.41-2.77 15.47 0H576.2C557.73-12.5 510 32.38 466.83 52.84C412.86 78.4 336.16-11.08 304.92-32.38h-15.47C248.03-15.66 164.96 101.15 121.7 72.72z"/></g></svg>