<svg id="vector" xmlns="http://www.w3.org/2000/svg" width="578.0d" height="295.0d" viewBox="0 0 578.0 295.0"><g id="g_0"><path fill="#1072eb" d="M0 0h578.33v295.82H0z"/><path fill="#1040c1" d="M74.7 110.76C50.65 77.66 122.36-42.2 161.23-98H-58.81l18.8 468.26l201.23 52.66c28.83-28.83 87.25-102.3 90.26-165.49c3.76-78.98-146.68-105.31-176.77-146.68z" fill-opacity="0.5"/><path fill="#1040c1" d="M99.33 208.75C75.25 175.65 146.97 55.79 185.83 0H-34.19l18.8 468.26l201.22 52.66c28.84-28.83 87.26-102.3 90.27-165.49c3.76-78.98-146.68-105.31-176.77-146.68zm327.14-41.03C340.65 46.52 391.8-52.03 428.1-86.16L684.84 54.1l41.66 240.6c-64.25 8.17-214.2-5.77-300.03-126.98z" fill-opacity="0.5"/><path fill="#1040c1" d="M439 127.3C450.66-23.93 582.4-48.42 646.8-41.76l145.6 303.2l-153.25 195.4c-71.59-46.83-211.84-178.3-200.16-329.54z" fill-opacity="0.5"/></g></svg>