<svg id="vector" xmlns="http://www.w3.org/2000/svg" width="578.0d" height="295.0d" viewBox="0 0 578.0 295.0"><g id="g_0"><path fill="#1040c1" d="M578.33 0H0v295.82h578.33z"/><path fill="#142c8e" d="M1286.69 185.5c100.29-15 216.54 90.32 323.16 123.02l-79.36 125.61l-1995.84-92.42l-19.7-226.15C-249.14 50.62-34.85-23.76 66.32-32.04C167.5-40.34 237.16 126.59 334.29 87.8c97.13-38.78 180.68-110.1 307.36 21.52C748.27 220.1 918.8 42.51 1023.13 58.01c104.24 14.83 163.27 142.48 263.56 127.49z"/><path fill="#1040c1" d="M1135.99 193.75c-117.84 32.27-141.59-5.38-201.5 0.83c-89.91 9.02-238.33 41.33-331.23 20.55c-92.86-20.36-195.34-36.9-285.2-27.39c-89.86 9.52-273.75 39.24-365.48 30.07c-91.78-9.58-91.4-58.04-184.3-78.82c-92.86-20.36-180.54 10.85-268.9 35.27c-88.4 24-177.48 41.2-267.76 46.53c-90.28 5.32-181.62 0.14-227.33-2.94l-45.69-2.8l11.25 111.95l45.32-0.91l226.58-4.55l271.89-5.47l271.9-5.46l271.88-5.46l271.9-5.47l271.89-5.46l271.9-5.46l226.57-4.55l45.31-0.91l-9-89.56z"/></g></svg>